<mxfile host="Electron" modified="2023-07-11T01:17:02.825Z" agent="Mozilla/5.0 (Macintosh; Intel Mac OS X 10_15_7) AppleWebKit/537.36 (KHTML, like Gecko) draw.io/21.6.1 Chrome/112.0.5615.204 Electron/24.6.1 Safari/537.36" etag="NGJf24humTON8O_WHBN-" version="21.6.1" type="device" pages="3">
  <diagram id="_fdhIk3AzRPa3gKjDYVd" name="Flink Total Memory">
    <mxGraphModel dx="1242" dy="793" grid="1" gridSize="10" guides="1" tooltips="1" connect="1" arrows="1" fold="1" page="1" pageScale="1" pageWidth="827" pageHeight="1169" math="0" shadow="0">
      <root>
        <mxCell id="d08xqscVeE9lwqAEMp5u-0" />
        <mxCell id="d08xqscVeE9lwqAEMp5u-1" parent="d08xqscVeE9lwqAEMp5u-0" />
        <mxCell id="26nWJFNjaUFD2ajb3o5e-0" value="&lt;font style=&quot;font-size: 18px&quot;&gt;Total Process Memory&lt;/font&gt;" style="rounded=0;whiteSpace=wrap;html=1;strokeWidth=1;fontSize=17;verticalAlign=top;fillColor=none;" parent="d08xqscVeE9lwqAEMp5u-1" vertex="1">
          <mxGeometry x="249" y="320" width="330" height="380" as="geometry" />
        </mxCell>
        <mxCell id="26nWJFNjaUFD2ajb3o5e-1" value="Off-Heap" style="rounded=0;whiteSpace=wrap;html=1;strokeColor=#000000;strokeWidth=1;fillColor=#fff2cc;fontSize=15;fontColor=#000000;verticalAlign=top;" parent="d08xqscVeE9lwqAEMp5u-1" vertex="1">
          <mxGeometry x="281.5" y="460" width="265" height="220" as="geometry" />
        </mxCell>
        <mxCell id="26nWJFNjaUFD2ajb3o5e-2" value="&lt;font style=&quot;font-size: 16px&quot;&gt;Total Flink Memory&lt;/font&gt;" style="rounded=0;whiteSpace=wrap;html=1;strokeWidth=1;fontSize=15;dashed=1;verticalAlign=top;fillColor=none;" parent="d08xqscVeE9lwqAEMp5u-1" vertex="1">
          <mxGeometry x="269" y="360" width="290" height="190" as="geometry" />
        </mxCell>
        <mxCell id="26nWJFNjaUFD2ajb3o5e-3" value="JVM Heap" style="rounded=0;whiteSpace=wrap;html=1;strokeColor=#000000;strokeWidth=1;fillColor=#cfe2f3;fontSize=15;verticalAlign=middle;" parent="d08xqscVeE9lwqAEMp5u-1" vertex="1">
          <mxGeometry x="281.5" y="400" width="265" height="40" as="geometry" />
        </mxCell>
        <mxCell id="26nWJFNjaUFD2ajb3o5e-4" value="Off-Heap Memory" style="rounded=0;whiteSpace=wrap;html=1;strokeColor=#000000;strokeWidth=1;fillColor=#ffe599;fontSize=16;" parent="d08xqscVeE9lwqAEMp5u-1" vertex="1">
          <mxGeometry x="310" y="500" width="210" height="40" as="geometry" />
        </mxCell>
        <mxCell id="CpLqvCoj3eS38Se6I9G6-0" value="JVM Overhead" style="rounded=0;whiteSpace=wrap;html=1;strokeColor=#000000;strokeWidth=1;fillColor=#efefef;fontSize=16;" parent="d08xqscVeE9lwqAEMp5u-1" vertex="1">
          <mxGeometry x="310" y="620" width="210" height="40" as="geometry" />
        </mxCell>
        <mxCell id="CpLqvCoj3eS38Se6I9G6-1" value="JVM Metaspace" style="rounded=0;whiteSpace=wrap;html=1;strokeColor=#000000;strokeWidth=1;fillColor=#efefef;fontSize=16;" parent="d08xqscVeE9lwqAEMp5u-1" vertex="1">
          <mxGeometry x="310" y="560" width="210" height="40" as="geometry" />
        </mxCell>
        <mxCell id="gjkqb3q7owvVW7tX1d10-0" value="Flink Total Memory" style="text;html=1;strokeColor=none;fillColor=none;align=center;verticalAlign=middle;whiteSpace=wrap;rounded=0;dashed=1;fontSize=21;fontColor=#000000;" parent="d08xqscVeE9lwqAEMp5u-1" vertex="1">
          <mxGeometry x="314" y="270" width="206" height="30" as="geometry" />
        </mxCell>
      </root>
    </mxGraphModel>
  </diagram>
  <diagram id="jV1cAurfQ0Lhk7-P1ggF" name="TaskManager Memory Total">
    <mxGraphModel dx="1242" dy="793" grid="1" gridSize="10" guides="1" tooltips="1" connect="1" arrows="1" fold="1" page="1" pageScale="1" pageWidth="827" pageHeight="1169" math="0" shadow="0">
      <root>
        <mxCell id="wNgq-h0R71zh6cZPiYkQ-0" />
        <mxCell id="wNgq-h0R71zh6cZPiYkQ-1" parent="wNgq-h0R71zh6cZPiYkQ-0" />
        <mxCell id="dwUGe1MYZKbFntFu4kk3-0" value="&lt;font style=&quot;font-size: 18px&quot;&gt;Total Process Memory&lt;/font&gt;" style="rounded=0;whiteSpace=wrap;html=1;strokeWidth=1;fontSize=17;verticalAlign=top;fillColor=none;" parent="wNgq-h0R71zh6cZPiYkQ-1" vertex="1">
          <mxGeometry x="249" y="320" width="330" height="440" as="geometry" />
        </mxCell>
        <mxCell id="dwUGe1MYZKbFntFu4kk3-1" value="Off-Heap" style="rounded=0;whiteSpace=wrap;html=1;strokeColor=#000000;strokeWidth=1;fillColor=#fff2cc;fontSize=15;fontColor=#000000;verticalAlign=top;" parent="wNgq-h0R71zh6cZPiYkQ-1" vertex="1">
          <mxGeometry x="281.5" y="460" width="265" height="280" as="geometry" />
        </mxCell>
        <mxCell id="dwUGe1MYZKbFntFu4kk3-2" value="&lt;font style=&quot;font-size: 16px&quot;&gt;Total Flink Memory&lt;/font&gt;" style="rounded=0;whiteSpace=wrap;html=1;strokeWidth=1;fontSize=15;dashed=1;verticalAlign=top;fillColor=none;" parent="wNgq-h0R71zh6cZPiYkQ-1" vertex="1">
          <mxGeometry x="269" y="360" width="290" height="250" as="geometry" />
        </mxCell>
        <mxCell id="dwUGe1MYZKbFntFu4kk3-3" value="JVM Heap" style="rounded=0;whiteSpace=wrap;html=1;strokeColor=#000000;strokeWidth=1;fillColor=#cfe2f3;fontSize=15;verticalAlign=middle;" parent="wNgq-h0R71zh6cZPiYkQ-1" vertex="1">
          <mxGeometry x="281.5" y="400" width="265" height="40" as="geometry" />
        </mxCell>
        <mxCell id="dwUGe1MYZKbFntFu4kk3-4" value="Managed Memory" style="rounded=0;whiteSpace=wrap;html=1;strokeColor=#000000;strokeWidth=1;fillColor=#B6D7A8;fontSize=16;" parent="wNgq-h0R71zh6cZPiYkQ-1" vertex="1">
          <mxGeometry x="310" y="500" width="210" height="40" as="geometry" />
        </mxCell>
        <mxCell id="dwUGe1MYZKbFntFu4kk3-5" value="JVM Overhead" style="rounded=0;whiteSpace=wrap;html=1;strokeColor=#000000;strokeWidth=1;fillColor=#efefef;fontSize=16;" parent="wNgq-h0R71zh6cZPiYkQ-1" vertex="1">
          <mxGeometry x="309" y="680" width="210" height="40" as="geometry" />
        </mxCell>
        <mxCell id="dwUGe1MYZKbFntFu4kk3-6" value="JVM Metaspace" style="rounded=0;whiteSpace=wrap;html=1;strokeColor=#000000;strokeWidth=1;fillColor=#efefef;fontSize=16;" parent="wNgq-h0R71zh6cZPiYkQ-1" vertex="1">
          <mxGeometry x="309" y="620" width="210" height="40" as="geometry" />
        </mxCell>
        <mxCell id="dwUGe1MYZKbFntFu4kk3-7" value="Off-Heap Memory" style="rounded=0;whiteSpace=wrap;html=1;strokeColor=#000000;strokeWidth=1;fillColor=#ffe599;fontSize=16;" parent="wNgq-h0R71zh6cZPiYkQ-1" vertex="1">
          <mxGeometry x="309" y="560" width="210" height="40" as="geometry" />
        </mxCell>
        <mxCell id="FT0IFsWQbrN96nsSOdKc-0" value="TaskManager Total Memory" style="text;html=1;strokeColor=none;fillColor=none;align=center;verticalAlign=middle;whiteSpace=wrap;rounded=0;dashed=1;fontSize=21;fontColor=#000000;" parent="wNgq-h0R71zh6cZPiYkQ-1" vertex="1">
          <mxGeometry x="278" y="270" width="271" height="30" as="geometry" />
        </mxCell>
      </root>
    </mxGraphModel>
  </diagram>
  <diagram id="YkN1-P0uREzAV2ZhqlWJ" name="TaskManager Memory Detail">
    <mxGraphModel dx="1242" dy="793" grid="1" gridSize="10" guides="1" tooltips="1" connect="1" arrows="1" fold="1" page="1" pageScale="1" pageWidth="827" pageHeight="1169" math="0" shadow="0">
      <root>
        <mxCell id="0" />
        <mxCell id="1" parent="0" />
        <mxCell id="GxC2o9oRtwNtx9GoP0pw-86" value="&lt;font style=&quot;font-size: 18px&quot;&gt;Total Process Memory&lt;/font&gt;" style="rounded=0;whiteSpace=wrap;html=1;strokeWidth=1;fontSize=17;verticalAlign=top;fillColor=none;" parent="1" vertex="1">
          <mxGeometry x="250" y="220" width="330" height="580" as="geometry" />
        </mxCell>
        <mxCell id="GxC2o9oRtwNtx9GoP0pw-90" value="Off-Heap Memory" style="rounded=0;whiteSpace=wrap;html=1;strokeColor=#000000;strokeWidth=1;fillColor=#fff2cc;fontSize=15;fontColor=#000000;verticalAlign=top;" parent="1" vertex="1">
          <mxGeometry x="282.5" y="430" width="265" height="350" as="geometry" />
        </mxCell>
        <mxCell id="GxC2o9oRtwNtx9GoP0pw-99" value="&lt;font style=&quot;font-size: 16px&quot;&gt;Total Flink Memory&lt;/font&gt;" style="rounded=0;whiteSpace=wrap;html=1;strokeWidth=1;fontSize=15;dashed=1;verticalAlign=top;fillColor=none;" parent="1" vertex="1">
          <mxGeometry x="270" y="260" width="290" height="420" as="geometry" />
        </mxCell>
        <mxCell id="GxC2o9oRtwNtx9GoP0pw-87" value="JVM Heap" style="rounded=0;whiteSpace=wrap;html=1;strokeColor=#000000;strokeWidth=1;fillColor=#cfe2f3;fontSize=15;verticalAlign=top;" parent="1" vertex="1">
          <mxGeometry x="282.5" y="300" width="265" height="120" as="geometry" />
        </mxCell>
        <mxCell id="GxC2o9oRtwNtx9GoP0pw-88" value="Framework Heap" style="rounded=0;whiteSpace=wrap;html=1;strokeColor=#000000;strokeWidth=1;fillColor=#b7b7b7;fontSize=16;fontColor=default;" parent="1" vertex="1">
          <mxGeometry x="320" y="340" width="185" height="30" as="geometry" />
        </mxCell>
        <mxCell id="GxC2o9oRtwNtx9GoP0pw-89" value="Task Heap" style="rounded=0;whiteSpace=wrap;html=1;strokeColor=#000000;strokeWidth=1;fillColor=#d9ead3;fontSize=16;" parent="1" vertex="1">
          <mxGeometry x="320" y="380" width="185" height="30" as="geometry" />
        </mxCell>
        <mxCell id="GxC2o9oRtwNtx9GoP0pw-92" value="Managed Memory" style="rounded=0;whiteSpace=wrap;html=1;strokeColor=#000000;strokeWidth=1;fillColor=#b6d7a8;fontSize=16;" parent="1" vertex="1">
          <mxGeometry x="320" y="470" width="185" height="30" as="geometry" />
        </mxCell>
        <mxCell id="GxC2o9oRtwNtx9GoP0pw-93" value="* Direct Memory" style="rounded=0;whiteSpace=wrap;html=1;strokeColor=#000000;strokeWidth=1;fillColor=#ffe599;fontSize=15;fontColor=#000000;verticalAlign=top;" parent="1" vertex="1">
          <mxGeometry x="312.5" y="515" width="205" height="155" as="geometry" />
        </mxCell>
        <mxCell id="GxC2o9oRtwNtx9GoP0pw-94" value="Frame Off-Heap" style="rounded=0;whiteSpace=wrap;html=1;strokeColor=#000000;strokeWidth=1;fillColor=#b7b7b7;fontSize=16;fontColor=default;" parent="1" vertex="1">
          <mxGeometry x="322.5" y="550" width="185" height="30" as="geometry" />
        </mxCell>
        <mxCell id="GxC2o9oRtwNtx9GoP0pw-95" value="Task Off-Heap" style="rounded=0;whiteSpace=wrap;html=1;strokeColor=#000000;strokeWidth=1;fillColor=#d9ead3;fontSize=16;" parent="1" vertex="1">
          <mxGeometry x="322.5" y="590" width="185" height="30" as="geometry" />
        </mxCell>
        <mxCell id="GxC2o9oRtwNtx9GoP0pw-96" value="Network" style="rounded=0;whiteSpace=wrap;html=1;strokeColor=#000000;strokeWidth=1;fillColor=#fce5cd;fontSize=16;" parent="1" vertex="1">
          <mxGeometry x="322.5" y="630" width="185" height="30" as="geometry" />
        </mxCell>
        <mxCell id="GxC2o9oRtwNtx9GoP0pw-97" value="JVM Overhead" style="rounded=0;whiteSpace=wrap;html=1;strokeColor=#000000;strokeWidth=1;fillColor=#efefef;fontSize=16;" parent="1" vertex="1">
          <mxGeometry x="320" y="730" width="185" height="30" as="geometry" />
        </mxCell>
        <mxCell id="GxC2o9oRtwNtx9GoP0pw-98" value="JVM Metaspace" style="rounded=0;whiteSpace=wrap;html=1;strokeColor=#000000;strokeWidth=1;fillColor=#efefef;fontSize=16;" parent="1" vertex="1">
          <mxGeometry x="320" y="690" width="185" height="30" as="geometry" />
        </mxCell>
        <mxCell id="20NFmer4y3EIMxp52bzm-1" value="TaskManager Total Memory Detail" style="text;html=1;strokeColor=none;fillColor=none;align=center;verticalAlign=middle;whiteSpace=wrap;rounded=0;dashed=1;fontSize=19;fontColor=#000000;" parent="1" vertex="1">
          <mxGeometry x="257.5" y="170" width="310" height="30" as="geometry" />
        </mxCell>
      </root>
    </mxGraphModel>
  </diagram>
</mxfile>
